<?xml version="1.0" encoding="utf-8"?>
<!-- Generator: Adobe Illustrator 22.1.0, SVG Export Plug-In . SVG Version: 6.00 Build 0)  -->
<svg version="1.1" id="Livello_1" xmlns="http://www.w3.org/2000/svg" xmlns:xlink="http://www.w3.org/1999/xlink" x="0px" y="0px"
	 viewBox="0 0 176 58" style="enable-background:new 0 0 176 58;" xml:space="preserve">
<style type="text/css">
	.st0{enable-background:new    ;}
	.st1{fill:#383838;}
	.st2{fill:#FFFFFF;}
	.st3{fill:#FDFDFD;}
	.st4{fill:#FEFEFE;}
	.st5{fill:#F1F1F1;}
	.st6{fill:#262F3E;}
	.st7{fill:#43D2E7;}
	.st8{fill:#F86233;}
</style>
<g id="Logo" transform="translate(-14.249 -65.709)">
	<g id="Group_3" transform="translate(14.249 62.859)">
		<g class="st0">
			<path class="st1" d="M45.1,20.6v36.5H34.6l-2.8-2.8l-1.2,2.8h-9.8l-3.5-3.5v3.5H6.7l-4.8-4.8V15.8h10.4l4.8,4.8l5.2,12.7
				l7.5-17.5h10.4L45.1,20.6z"/>
			<path class="st1" d="M59,20.6v36.5H48.5l-4.8-4.8V15.8h10.6L59,20.6z"/>
			<path class="st1" d="M98.4,20.6v36.5H87.6l-4.8-4.8l-9.4-12.6v17.4H62.9l-4.8-4.8V15.8h10.8l4.8,4.8L83,33.2V15.8h10.6L98.4,20.6
				z"/>
			<path class="st1" d="M136.8,38.8c0,2.4-0.5,4.8-1.4,7.1c-0.9,2.2-2.3,4.1-3.9,5.8c-1.7,1.7-3.6,3-5.8,3.9c-2.3,1-4.6,1.4-7.1,1.4
				h-16.3l-4.8-4.8V15.8h16.3c2.4,0,4.8,0.5,7.1,1.4c2.2,0.9,4.1,2.2,5.8,3.9l4.8,4.8c1.7,1.7,3,3.6,3.9,5.8
				C136.3,34,136.8,36.4,136.8,38.8z M121.4,34c0-0.9-0.1-1.7-0.4-2.5c-0.8-0.2-1.6-0.4-2.4-0.4h-5.8v10.6h1c2,0,3.9-0.8,5.4-2.3
				C120.6,38,121.4,36.1,121.4,34z"/>
			<path class="st1" d="M175.6,38.8c0,2.5-0.5,5-1.5,7.3c-0.9,2.2-2.3,4.2-4,6s-3.7,3.1-6,4c-2.3,1-4.8,1.5-7.3,1.5s-5-0.5-7.3-1.5
				c-2.2-0.9-4.2-2.3-6-4l-4.8-4.8c-1.7-1.7-3.1-3.7-4-6c-1-2.3-1.5-4.8-1.5-7.3c0-2.5,0.5-5,1.5-7.3c0.9-2.2,2.3-4.2,4-6
				c1.7-1.7,3.7-3.1,6-4c2.3-1,4.8-1.5,7.3-1.5s5,0.5,7.3,1.5c2.2,0.9,4.2,2.3,6,4l4.8,4.8c1.7,1.7,3.1,3.7,4,6
				C175.1,33.9,175.6,36.3,175.6,38.8z M160.2,34c0-1-0.2-2-0.5-2.8c-0.9-0.3-1.8-0.5-2.8-0.5c-2.2,0-4.2,0.9-5.8,2.4
				s-2.4,3.6-2.4,5.8c0,1,0.2,2,0.5,2.8c0.9,0.3,1.8,0.5,2.8,0.5c2.2,0,4.2-0.9,5.8-2.4S160.2,36.2,160.2,34z"/>
		</g>
		<g class="st0">
			<path class="st2" d="M3.4,17.2h8l9.6,23.1l9.9-23.1h8v33.6h-7.7V36l-6.4,14.9h-7.9L11,36.5v14.3H3.4V17.2z"/>
			<path class="st2" d="M45.1,17.2h7.7v33.6h-7.7V17.2z"/>
			<path class="st2" d="M59.5,17.2h8.6l16.4,22v-22h7.7v33.6h-8.6l-16.3-22v22h-7.7V17.2z"/>
			<path class="st2" d="M98.9,17.2h14.9c9.2,0,16.8,7.5,16.8,16.8s-7.6,16.8-16.8,16.8H98.9V17.2z M113.8,43.2c5,0,9.1-4.1,9.1-9.1
				c0-5-4.1-9.1-9.1-9.1h-7.2v18.2H113.8z"/>
			<path class="st2" d="M134.8,34c0-9.6,7.7-17.3,17.3-17.3s17.3,7.7,17.3,17.3s-7.7,17.3-17.3,17.3S134.8,43.6,134.8,34z M161.7,34
				c0-5.3-4.3-9.6-9.6-9.6s-9.6,4.3-9.6,9.6s4.3,9.6,9.6,9.6S161.7,39.3,161.7,34z"/>
		</g>
	</g>
	<g id="DuVi2y.tif_1_" transform="translate(148.684 73.142)">
		<g id="Group_5" transform="translate(0.1 0.1)">
			<g id="Ellipse_9">
				<circle class="st2" cx="17.4" cy="24.7" r="16"/>
			</g>
			<g id="Path_2">
				<path class="st1" d="M18.8,41.2H16c0-0.1-0.1-0.1-0.2-0.1c-1.3-0.1-2.6-0.4-3.9-0.8c-1.4-0.5-2.8-1.1-4-1.9l-1-0.7
					c-0.3-0.2-0.5-0.4-0.8-0.7c-0.8-0.6-1.4-1.4-2.1-2.1c-0.2-0.3-0.4-0.5-0.6-0.8c-0.8-1.2-1.5-2.4-2.1-3.7c-0.1-0.4-0.3-0.7-0.4-1
					c-0.5-1.6-0.8-3.2-0.9-4.8V23c0.1-1.2,0.3-2.4,0.5-3.5c0.4-1.6,1-3.1,1.8-4.5c0.5-0.9,1.2-1.7,1.8-2.5C5.5,10.9,7,9.7,8.7,8.6
					c0.2-0.1,0.4-0.2,0.6-0.3c2.2-1.2,4.6-1.9,7.1-2c0.3,0,0.3-0.2,0.3-0.4c0-0.3-0.2-0.3-0.4-0.3s-0.4,0-0.6,0
					c-1.1,0.1-2.2-0.4-2.8-1.3c-0.2-0.4-0.3-0.7-0.4-1.1c0,0,0-0.1,0-0.1c-0.2-1.4,0.7-2.7,2.1-3c0.1,0,0.1,0,0.2-0.1H20
					c0.7,0.2,1.3,0.5,1.7,1.1C22,1.4,22.1,1.7,22.3,2c0,0.1,0,0.1,0,0.2c0.3,1.5-0.6,3-2.1,3.4c-0.2,0-0.4,0.1-0.6,0.1
					c-0.4,0-0.7,0-1,0c-0.2,0-0.4,0-0.3,0.3c0,0.2,0,0.4,0.3,0.4c0.3,0,0.7,0,1,0.1c1.2,0.2,2.4,0.4,3.6,0.8c0.4,0.1,0.7,0.3,1,0.4
					c1.3,0.6,2.5,1.3,3.7,2.1c0.2,0.2,0.5,0.4,0.7,0.5c1.1,0.9,2,2,2.9,3.1c0.2,0.2,0.4,0.5,0.5,0.7c0.8,1.2,1.4,2.5,2,3.9l0.3,1.1
					c0.4,1.6,0.6,3.2,0.6,4.9V24c0,0.5-0.1,1.1-0.1,1.6c0,0.1-0.1,0.2-0.1,0.4c-0.1,1-0.4,2.1-0.7,3.1c-1.1,3.5-3.4,6.6-6.4,8.7
					c-2.1,1.5-4.5,2.6-7,3C20.1,41,19.4,41.1,18.8,41.2z M27.6,11.4c-0.3-0.3-0.6-0.5-1-0.7c-1.1-0.8-2.4-1.5-3.7-1.9
					c-0.4-0.2-0.8-0.3-1.3-0.4c-0.4-0.2-0.9-0.3-1.3-0.3c-1.3-0.2-2.5-0.3-3.8-0.2c-0.6,0-1.2,0.1-1.7,0.2c-6.7,1.2-11.9,6.4-13,13
					c-0.1,0.6-0.2,1.2-0.2,1.8c-0.2,1.7,0,3.5,0.5,5.2c0.1,0.4,0.2,0.8,0.4,1.2c0.4,1.4,1.1,2.6,2,3.8c0.2,0.3,0.5,0.7,0.7,1
					c0.8,1,1.7,1.9,2.8,2.7C8.3,36.8,8.6,37,9,37.2c0.8,0.5,1.6,1,2.5,1.3c0.5,0.2,1,0.4,1.5,0.5c0.4,0.1,0.8,0.3,1.2,0.3
					c1.8,0.4,3.7,0.5,5.5,0.2c0.7-0.1,1.4-0.2,2-0.4c1.3-0.3,2.5-0.8,3.6-1.4c2.6-1.4,4.7-3.6,6.2-6.2c0.7-1.1,1.1-2.3,1.4-3.6
					c0.2-0.7,0.4-1.3,0.4-2c0.1-0.5,0.1-0.9,0.1-1.4c0.1-1.4,0-2.7-0.3-4.1c-0.1-0.4-0.2-0.8-0.3-1.2c-0.4-1.4-1-2.8-1.8-4.1
					c-0.2-0.3-0.4-0.7-0.7-0.9C29.5,13.2,28.6,12.2,27.6,11.4z M14.1,3c0.1,0.5,0.4,0.9,0.9,1c0.4,0.1,0.7,0.1,1.1,0.1
					c0.7,0,0.7,0,0.7-0.7c0-0.7,0-0.7,0.7-0.7c0.7,0,0.7,0,0.7,0.7c0,0.6,0,0.6,0.6,0.6c0.3,0,0.5,0,0.8,0c0.7,0,1.3-0.6,1.3-1.4
					c0-0.2-0.1-0.4-0.2-0.6c-0.2-0.4-0.7-0.7-1.1-0.7c-1.3,0-2.7,0-4,0c-0.7-0.1-1.4,0.4-1.5,1.1C14,2.7,14,2.9,14.1,3z"/>
			</g>
			<g id="Path_3">
				<path class="st3" d="M16.5,7.8c1.3-0.1,2.5,0,3.8,0.2c0.5,0.1,0.9,0.2,1.4,0.3c0,0.2-0.2,0.3-0.3,0.4c-0.4,0.4-0.8,0.8-1.1,1.3
					c-0.7-0.1-1.3-0.2-2-0.2c-0.4,0-0.8,0-1.2,0c-0.2,0-0.2,0.1-0.2,0.2c0,0.3,0,0.6,0,1c0,0.7,0,0.7,0.7,0.8c0,0.3,0,0.7,0,1
					c-0.2,0-0.3,0.2-0.4,0.3c-4.8,4.9-9.7,9.7-14.5,14.5c-0.1,0.1-0.2,0.3-0.4,0.3c-0.5-1.7-0.7-3.4-0.5-5.2c0.2,0,0.3-0.2,0.4-0.3
					c1.3-1.3,2.7-2.7,4-4c0.1-0.1,0.2-0.2,0.4-0.3c0.2,0,0.3,0.3,0.5,0.1c0.3-0.4,0.5-0.8,0.6-1.2c0.3-0.4,0.7-0.7,1-1.1
					c0.8-0.8,1.5-1.6,2.4-2.3c0.3-0.1,0.6-0.3,0.9-0.4c0.3-0.1,0.5-0.3,0.2-0.7c0.1-0.1,0.2-0.2,0.3-0.4l4-4
					C16.3,8.1,16.5,8,16.5,7.8z M4.5,23c-0.3,0-0.7-0.1-0.9,0c-0.2,0.2-0.1,0.6-0.1,0.9v0.1c0,0.3,0,0.4,0.3,0.3c0.4,0,0.8,0,1.1,0
					c0.4,0.1,0.5-0.1,0.5-0.5C5.4,23,5.5,23,4.5,23z"/>
			</g>
			<g id="Path_4">
				<path class="st4" d="M4.4,32.9c-0.9-1.1-1.5-2.4-2-3.8c0.2-0.1,0.3-0.2,0.4-0.3c4.8-4.7,9.5-9.5,14.2-14.2
					c0.1-0.1,0.2-0.2,0.4-0.3V20c-0.4,0.2-0.8,0.6-1,1c-0.7,0.3-1.3,0.9-1.6,1.6c-0.2,0-0.3,0.2-0.4,0.3l-6.7,6.7
					C7.5,29.8,7.5,30,7.3,30c-0.1-0.2-0.3-0.4-0.4-0.7c-0.1-0.2-0.2-0.2-0.4-0.1c-0.4,0.2-0.8,0.5-1.2,0.7C5.1,30,5,30.1,5.2,30.3
					c0.2,0.2,0.3,0.5,0.4,0.8c0.1,0.2,0.2,0.3,0.5,0.2c0,0.1,0,0.1-0.1,0.2C5.4,31.9,5,32.4,4.4,32.9z"/>
			</g>
			<g id="Path_5">
				<path class="st4" d="M12.9,39c-0.5-0.1-1-0.3-1.5-0.5c-0.9-0.3-1.7-0.8-2.5-1.3c0.4-0.6,0.9-1.1,1.4-1.5
					c0.1,0.1,0.3,0.1,0.4,0.2c0.2,0.1,0.3,0.2,0.5-0.1c0.2-0.4,0.5-0.8,0.7-1.2c0.1-0.2,0.1-0.3-0.1-0.4c0-0.2,0.2-0.3,0.3-0.4l8-8
					c0.1-0.1,0.2-0.2,0.4-0.3c1.2,0.6,2.4,1.3,3.5,2c0,0.2-0.2,0.3-0.3,0.4c-3.5,3.5-7,7-10.6,10.6C13.1,38.7,13,38.8,12.9,39z"/>
			</g>
			<g id="Path_6">
				<path class="st3" d="M19.6,39.5c-1.8,0.3-3.7,0.2-5.5-0.2c0-0.1,0-0.2,0.1-0.2l2.3-2.3c0.1,0,0.1-0.1,0.2-0.1
					c0.1,0.3-0.1,0.7,0.1,0.8s0.6,0.1,0.9,0.1c0.1,0,0.2,0,0.3,0c0.2,0,0.2-0.1,0.2-0.2c0-0.5,0-0.9,0-1.4c0-0.3-0.1-0.3-0.3-0.3
					c0-0.2,0.1-0.3,0.2-0.4l6.9-6.9c0.1-0.1,0.2-0.1,0.3-0.2c0.9,0.5,1.7,1,2.6,1.5c-0.3,0.7-0.3,0.7,0.4,1.1c0,0,0.1,0.1,0.1,0.1
					c-0.1,0-0.1,0.1-0.2,0.1c-1.2,1.1-2.3,2.3-3.4,3.4c0,0.1-0.1,0.1-0.1,0.2c-0.2-0.2-0.3-0.7-0.5-0.7s-0.6,0.3-0.9,0.4
					c0,0-0.1,0.1-0.1,0.1c-0.2,0.1-0.2,0.2-0.1,0.4c0.2,0.3,0.4,0.7,0.6,1c-0.2,0-0.2,0.1-0.3,0.2l-3.3,3.3
					C19.7,39.3,19.6,39.4,19.6,39.5z"/>
			</g>
			<g id="Path_7">
				<path class="st4" d="M7.9,36.5c-1.1-0.7-2-1.6-2.8-2.7c0-0.2,0.1-0.3,0.2-0.4l8.9-8.9c0.1-0.1,0.2-0.2,0.4-0.3
					c0.1,0.4,0.3,0.7,0.5,1c0.6,0.9,1.7,1.3,2.8,1.1c0,0.2-0.2,0.3-0.3,0.4c-2.1,2.1-4.3,4.3-6.4,6.4c-0.1,0.1-0.3,0.2-0.3,0.4
					c-0.3,0-0.3,0.4-0.5,0.5c-0.2,0-0.3,0.1-0.4,0.2l-1.8,1.8C8.2,36.4,8.1,36.5,7.9,36.5z"/>
			</g>
			<g id="Path_8">
				<path class="st3" d="M1.7,21c1.2-6.7,6.4-11.9,13-13c0,0.2-0.1,0.3-0.3,0.4c-0.9,0.9-1.9,1.9-2.9,2.8c-0.1,0.1-0.2,0.2-0.4,0.2
					c-0.1-0.1-0.2-0.2-0.4-0.1c-0.1,0.1-0.3,0.2-0.4,0.3C9.9,12,9.9,12,10.1,12.6c0,0.2-0.2,0.3-0.3,0.4l-3.1,3.1
					c-0.1,0.1-0.3,0.2-0.3,0.4c-0.3-0.1-0.5-0.4-0.7-0.3s-0.3,0.5-0.5,0.7c0,0.1-0.1,0.2-0.2,0.3c-0.1,0.2,0,0.3,0.1,0.4
					c0,0.1-0.1,0.2-0.2,0.3l-3,3C2,20.9,1.8,21,1.7,21z"/>
			</g>
			<g id="Path_9">
				<path class="st3" d="M32.8,27.9c-0.3,1.3-0.8,2.5-1.4,3.6c-1.4,2.6-3.6,4.7-6.2,6.2c-1.1,0.7-2.3,1.1-3.6,1.4
					c0-0.2,0.1-0.3,0.3-0.4l2.8-2.8c0.1-0.1,0.3-0.2,0.2-0.4c0,0,0.1,0,0.1-0.1c0.2,0,0.2-0.1,0.3-0.2c1.2-1.2,2.4-2.4,3.7-3.7
					c0.1-0.1,0.2-0.2,0.2-0.3c0,0,0-0.1,0.1-0.1c0.2,0,0.3-0.1,0.4-0.2l2.8-2.8C32.6,28,32.7,27.9,32.8,27.9z"/>
			</g>
			<g id="Path_10">
				<path class="st3" d="M17.4,14.2c-0.1,0.1-0.2,0.2-0.4,0.3L2.8,28.8c-0.1,0.1-0.2,0.3-0.4,0.3c-0.2-0.4-0.3-0.8-0.4-1.2
					c0.2,0,0.3-0.2,0.4-0.3c4.8-4.8,9.7-9.7,14.5-14.5c0.1-0.1,0.2-0.3,0.4-0.3C17.4,13.3,17.4,13.7,17.4,14.2z"/>
			</g>
			<g id="Path_11">
				<path class="st3" d="M16.7,36.7c-0.1,0-0.1,0-0.2,0.1c-0.8,0.8-1.5,1.5-2.3,2.3c-0.1,0.1-0.1,0.1-0.1,0.2
					c-0.4-0.1-0.8-0.2-1.2-0.3c0-0.2,0.2-0.3,0.3-0.4c3.5-3.5,7-7,10.6-10.6c0.1-0.1,0.3-0.2,0.3-0.4c0.4,0.2,0.7,0.4,1.1,0.6
					c-0.1,0.1-0.2,0.1-0.3,0.2c-2.3,2.3-4.6,4.6-6.9,6.9c-0.1,0.1-0.2,0.2-0.2,0.4c-0.3,0-0.6,0-0.9,0c-0.2,0-0.2,0.1-0.2,0.2
					C16.7,36.2,16.7,36.5,16.7,36.7z"/>
			</g>
			<g id="Path_12">
				<path class="st3" d="M14.7,24.3c-0.2,0-0.3,0.1-0.4,0.3l-8.9,8.9c-0.1,0.1-0.2,0.2-0.2,0.4c-0.3-0.3-0.5-0.6-0.7-1
					c0.6-0.5,1-1,1.6-1.5c0,0,0-0.1,0.1-0.2c0.3-0.2,0.7-0.4,1-0.6c0.3-0.1,0.4-0.3,0.2-0.6c0.2,0,0.3-0.2,0.4-0.3l6.7-6.7
					c0.1-0.1,0.2-0.3,0.4-0.3C14.6,23.2,14.6,23.8,14.7,24.3z"/>
			</g>
			<g id="Path_13">
				<path class="st3" d="M33.1,20.4c0.3,1.3,0.4,2.7,0.3,4.1c0,0.5-0.1,0.9-0.1,1.4c-0.2,0-0.2,0.2-0.3,0.3
					c-0.6,0.6-1.3,1.3-1.9,1.9c-0.1,0.1-0.2,0.3-0.4,0.3c0-0.2,0.1-0.3,0.1-0.5c0.3-1.1,0.5-2.2,0.6-3.4c0.1-0.5,0.1-1,0-1.5
					c0-0.3,0-0.7-0.1-1c0.5-0.4,0.9-0.8,1.3-1.2C32.8,20.6,32.8,20.4,33.1,20.4z"/>
			</g>
			<g id="Path_14">
				<path class="st3" d="M30.9,15.2c0.8,1.2,1.5,2.6,1.8,4.1c-0.2,0-0.3,0.2-0.4,0.3c-0.4,0.4-0.8,0.8-1.3,1.1
					c0-0.1-0.1-0.2-0.1-0.3c-0.2-1-0.6-2-1.1-2.9c0-0.3-0.3-0.5-0.4-0.8c0.1-0.1,0.2-0.2,0.3-0.4C30.2,15.9,30.5,15.6,30.9,15.2z"/>
			</g>
			<g id="Path_15">
				<path class="st3" d="M22.9,8.7c1.3,0.4,2.6,1.1,3.7,1.9c-0.5,0.5-0.9,1-1.4,1.5c-0.1,0-0.1-0.1-0.2-0.1
					c-0.4-0.3-0.8-0.6-1.3-0.7c-0.8-0.4-1.5-0.7-2.4-1C21.8,9.7,22.4,9.2,22.9,8.7z"/>
			</g>
			<g id="Path_16">
				<path class="st3" d="M27.6,11.4c1,0.8,1.9,1.7,2.6,2.8c-0.4,0.6-0.9,1.1-1.4,1.5c-0.8-1.1-1.7-2-2.7-2.9
					c0.3-0.3,0.5-0.6,0.8-0.9C27.2,11.7,27.3,11.4,27.6,11.4z"/>
			</g>
			<g id="Path_17">
				<path class="st3" d="M11.3,11.5c0.2,0,0.3-0.1,0.4-0.2c0.9-0.9,1.9-1.9,2.9-2.8c0.1-0.1,0.2-0.3,0.3-0.4
					c0.6-0.1,1.2-0.2,1.7-0.2c0,0.2-0.2,0.3-0.3,0.4l-4,4c-0.1,0.1-0.2,0.2-0.3,0.4C11.6,12.2,11.4,11.9,11.3,11.5z"/>
			</g>
			<g id="Path_18">
				<path class="st3" d="M1.7,21C1.8,21,2,20.9,2,20.8l3-3c0.1-0.1,0.1-0.2,0.2-0.3c0.4,0.2,0.7,0.4,1.1,0.6
					c-0.1,0.1-0.2,0.2-0.4,0.3c-1.3,1.3-2.7,2.7-4,4c-0.1,0.1-0.2,0.3-0.4,0.3C1.5,22.1,1.6,21.6,1.7,21z"/>
			</g>
			<g id="Path_19">
				<path class="st3" d="M24.9,35.5c0,0.2-0.1,0.3-0.2,0.4l-2.8,2.8c-0.1,0.1-0.3,0.2-0.3,0.4c-0.7,0.2-1.3,0.4-2,0.4
					c0-0.1,0.1-0.2,0.2-0.3l3.3-3.3c0.1-0.1,0.2-0.2,0.3-0.2c0.3,0.4,0.3,0.4,0.8,0.2C24.5,35.7,24.7,35.6,24.9,35.5z"/>
			</g>
			<g id="Path_20">
				<path class="st3" d="M30.6,28.3c0.2,0,0.3-0.2,0.4-0.3c0.6-0.6,1.3-1.3,1.9-1.9c0.1-0.1,0.2-0.2,0.3-0.3c-0.1,0.7-0.2,1.4-0.4,2
					c-0.2,0-0.3,0.1-0.4,0.3l-2.8,2.8c-0.1,0.1-0.2,0.3-0.4,0.2c0.2-0.4,0.5-0.7,0.6-1.2C30.2,29.5,30.4,28.9,30.6,28.3z"/>
			</g>
			<g id="Path_21">
				<path class="st5" d="M7.9,36.5c0.2,0,0.3-0.2,0.4-0.3c0.6-0.6,1.2-1.2,1.8-1.8c0.1-0.1,0.2-0.3,0.4-0.2
					c-0.1,0.2-0.2,0.4-0.3,0.5c-0.3,0.6-0.3,0.6,0.2,1c-0.5,0.4-1,0.9-1.4,1.5C8.6,37,8.3,36.8,7.9,36.5z"/>
			</g>
			<g id="Path_22">
				<path class="st3" d="M31.1,20.6c0.5-0.3,0.9-0.7,1.3-1.1c0.1-0.1,0.2-0.3,0.4-0.3c0.1,0.4,0.2,0.8,0.3,1.2
					c-0.2,0-0.3,0.2-0.4,0.3c-0.4,0.5-0.8,0.9-1.3,1.2C31.2,21.5,31.1,21.1,31.1,20.6z"/>
			</g>
			<g id="Path_23">
				<path class="st3" d="M22.9,8.7c-0.6,0.5-1.1,1-1.5,1.6c-0.4-0.1-0.8-0.2-1.2-0.3c0.3-0.5,0.7-0.9,1.1-1.3
					c0.1-0.1,0.3-0.2,0.3-0.4C22.1,8.4,22.5,8.5,22.9,8.7z"/>
			</g>
			<g id="Path_24">
				<path class="st3" d="M28.9,15.7c0.5-0.4,1-0.9,1.4-1.5c0.3,0.3,0.5,0.6,0.7,0.9c-0.3,0.4-0.7,0.8-1.1,1.2
					c-0.1,0.1-0.2,0.2-0.3,0.4c-0.1-0.2-0.3-0.4-0.4-0.5C29,16,28.9,15.8,28.9,15.7z"/>
			</g>
			<g id="Path_25">
				<path class="st3" d="M27.6,11.4c-0.3,0.1-0.4,0.3-0.6,0.5c-0.3,0.3-0.6,0.6-0.8,0.9c-0.3-0.2-0.6-0.4-0.9-0.7
					c0.5-0.5,0.9-1,1.4-1.5C27,10.9,27.3,11.1,27.6,11.4z"/>
			</g>
			<g id="Path_26">
				<path class="st6" d="M32.2,12.3c-0.3-0.3-0.5-0.6-0.8-0.8c-0.1-0.1-0.1-0.2,0-0.3c0.3-0.3,0.5-0.5,0.8-0.8
					c0.2-0.1,0.2-0.4,0.1-0.6c0,0-0.1-0.1-0.1-0.1L31.5,9c-0.1-0.2-0.4-0.2-0.6-0.1c0,0-0.1,0-0.1,0.1c-0.2,0.2-0.4,0.4-0.6,0.7
					c-0.2,0.3-0.4,0.3-0.6,0c-0.1-0.1-0.2-0.2-0.2-0.2c-0.5-0.6-0.5-0.6,0.1-1.1c0.5-0.7,1.3-1,2.2-0.9c0.9,0.4,1.6,1,2,1.8
					c0.3,0.5,0.3,1.1,0,1.6c-0.4,0.5-0.8,1-1.3,1.4C32.3,12.3,32.2,12.3,32.2,12.3z"/>
			</g>
			<g id="Path_27">
				<path class="st6" d="M1.1,10c0-0.2,0-0.3,0.1-0.5c0.4-0.9,1.1-1.6,2-2c0.6-0.2,1.2-0.1,1.7,0.3c0.4,0.3,0.7,0.7,1,1
					C6,8.9,6,9,5.9,9.1C5.7,9.3,5.4,9.5,5.2,9.8C5,9.9,5,9.9,4.9,9.8C4.6,9.5,4.4,9.3,4.1,9C4,8.8,3.7,8.8,3.5,8.9
					c0,0-0.1,0.1-0.1,0.1C3.2,9.3,3,9.5,2.8,9.6C2.6,9.8,2.6,10,2.7,10.2c0,0,0.1,0.1,0.1,0.1c0.3,0.2,0.5,0.5,0.7,0.7
					c0.1,0.1,0.1,0.2,0,0.3c0,0,0,0,0,0c-0.3,0.3-0.5,0.8-0.9,0.8c-0.3,0-0.5-0.5-0.8-0.7C1.4,11.1,1.1,10.6,1.1,10z"/>
			</g>
			<g id="Path_28">
				<path class="st7" d="M25.2,12.1c0.3,0.2,0.6,0.5,0.9,0.7c1,0.9,1.9,1.8,2.7,2.9c0.1,0.2,0.2,0.3,0.3,0.4
					c-0.2,0.1-0.5,0.3-0.7,0.4c-1,0.6-1,0.6-0.4,1.6c0.1,0.2,0.2,0.2,0.4,0.1c0.5-0.3,0.9-0.5,1.4-0.8c0.5,0.9,0.9,1.9,1.1,2.9
					c0,0.1,0.1,0.2,0.1,0.3c0.1,0.4,0.2,0.9,0.2,1.3c0,0.3,0,0.7,0.1,1h-1.2c-0.7,0-0.7,0-0.8,0.7h-4.6c0-0.1,0-0.1,0-0.2
					c0-0.6,0-0.6-0.6-0.6h-3.8c-0.2,0-0.3,0-0.4-0.2c-0.4-1.1-1.5-1.9-2.7-1.9c0-0.3,0-0.6,0-0.9v-7.2c0-0.3,0-0.7,0-1
					c0.1,0,0.2,0,0.3,0c0.3,0.1,0.4-0.1,0.4-0.4c0-0.5,0-1,0-1.5c0.7,0,1.3,0.2,2,0.2c0.4,0.1,0.8,0.2,1.2,0.3
					c0.8,0.2,1.6,0.6,2.4,1c-0.3,0.5-0.5,0.9-0.8,1.4c-0.1,0.2-0.1,0.3,0.1,0.4c0.3,0.1,0.5,0.3,0.8,0.5c0.2,0.1,0.3,0.1,0.4-0.1
					c0.3-0.5,0.5-0.9,0.8-1.4C25.1,12.1,25.2,12.1,25.2,12.1z"/>
			</g>
			<g id="Path_29">
				<path class="st3" d="M6.5,16.5c0-0.2,0.2-0.3,0.3-0.4L9.9,13c0.1-0.1,0.3-0.2,0.3-0.4c0.2,0.4,0.4,0.7,0.6,1.1
					C10,14.4,9.2,15.2,8.4,16c-0.4,0.3-0.7,0.7-1,1.1C7.1,16.9,6.8,16.7,6.5,16.5z"/>
			</g>
			<g id="Path_30">
				<path class="st1" d="M6.5,16.5c0.3,0.2,0.6,0.3,0.9,0.5c-0.1,0.4-0.4,0.8-0.6,1.2c-0.2,0.2-0.3-0.1-0.5-0.1
					c-0.3-0.2-0.7-0.4-1.1-0.6c-0.1-0.1-0.2-0.2-0.1-0.4c0.1-0.1,0.1-0.2,0.2-0.3c0.2-0.3,0.3-0.6,0.5-0.7S6.2,16.4,6.5,16.5z"/>
			</g>
			<g id="Path_31">
				<path class="st1" d="M10.8,13.7c-0.2-0.4-0.4-0.7-0.6-1.1C9.9,12,9.9,12,10.5,11.7c0.2-0.1,0.3-0.2,0.4-0.3
					c0.2-0.1,0.3,0,0.4,0.1c0.2,0.4,0.4,0.7,0.6,1.1c0.3,0.3,0.1,0.5-0.2,0.7C11.4,13.3,11.1,13.6,10.8,13.7z"/>
			</g>
			<g id="Path_32">
				<path class="st1" d="M18.2,9.8c0,0.5,0,1,0,1.5c0,0.3-0.1,0.5-0.4,0.4c-0.1,0-0.2,0-0.3,0c-0.7,0-0.7,0-0.7-0.8c0-0.3,0-0.6,0-1
					c0-0.2,0.1-0.2,0.2-0.2C17.4,9.8,17.8,9.8,18.2,9.8z"/>
			</g>
			<g id="Path_33">
				<path class="st1" d="M4.5,23c0.9,0,0.9,0,0.9,0.9c0,0.4-0.1,0.6-0.5,0.5c-0.4,0-0.8,0-1.1,0c-0.3,0-0.4-0.1-0.3-0.3V24
					c0-0.3-0.2-0.8,0.1-0.9C3.8,22.9,4.2,23,4.5,23z"/>
			</g>
			<g id="Path_34">
				<path class="st1" d="M17.5,20.9c1.2,0,2.3,0.8,2.7,1.9c0.1,0.2,0.2,0.2,0.4,0.2h3.8c0.6,0,0.6,0,0.6,0.6c0,0.1,0,0.1,0,0.2
					c0,0.1,0,0.2,0,0.2c0.1,0.4-0.1,0.5-0.5,0.5c-1.1,0-2.3,0-3.4,0c-0.6,0-0.9,0.1-1,0.7c-0.4,0.7-1.2,1.2-2,1.4
					c-1.1,0.2-2.1-0.3-2.8-1.1c-0.2-0.3-0.4-0.7-0.5-1c-0.1-0.6-0.1-1.1,0.1-1.7c0.3-0.7,0.9-1.3,1.6-1.6
					C16.7,21,17.1,20.9,17.5,20.9z M17.5,22.4c-0.7,0-1.4,0.6-1.4,1.3c0,0.7,0.6,1.4,1.3,1.4c0.7,0,1.4-0.6,1.4-1.3
					C18.8,23,18.2,22.4,17.5,22.4z"/>
			</g>
			<g id="Path_35">
				<path class="st1" d="M7.3,30c0.2,0.3,0.1,0.4-0.2,0.6c-0.4,0.2-0.7,0.4-1,0.6c-0.2,0.1-0.3,0.1-0.5-0.2
					c-0.1-0.3-0.3-0.5-0.4-0.8C5,30.1,5.1,30,5.2,29.9c0.4-0.2,0.8-0.5,1.2-0.7c0.2-0.1,0.3-0.1,0.4,0.1C7,29.5,7.1,29.8,7.3,30z"/>
			</g>
			<g id="Path_36">
				<path class="st3" d="M17.5,20.9l-1,0.2c0.2-0.4,0.6-0.8,1-1C17.4,20.3,17.4,20.6,17.5,20.9z"/>
			</g>
			<g id="Path_37">
				<path class="st8" d="M19.9,25.1c0.1-0.6,0.5-0.7,1-0.7c1.1,0.1,2.3,0,3.4,0c0.4,0,0.6-0.1,0.5-0.5c0-0.1,0-0.2,0-0.2h4.6
					c0,0.1,0,0.2,0,0.3c-0.1,0.3,0.1,0.4,0.4,0.4c0.5,0,1,0,1.5,0c-0.1,1.1-0.3,2.3-0.6,3.4c-0.1,0.2-0.1,0.3-0.1,0.5
					c-0.3,0.6-0.5,1.2-0.8,1.7c-0.3-0.2-0.7-0.4-1-0.5c-0.7-0.4-0.7-0.4-1.1,0.2c-0.9-0.5-1.7-1-2.6-1.5c-0.4-0.2-0.7-0.4-1.1-0.6
					c-1.2-0.7-2.3-1.4-3.5-2C20.4,25.4,20.1,25.3,19.9,25.1z"/>
			</g>
			<g id="Path_38">
				<path class="st3" d="M19.9,25.1c0.2,0.1,0.5,0.3,0.7,0.4c-0.1,0.1-0.2,0.2-0.4,0.3l-8,8c-0.1,0.1-0.3,0.2-0.3,0.4
					c-0.3-0.2-0.7-0.3-1-0.6c0-0.2,0.2-0.3,0.3-0.4c2.1-2.1,4.3-4.3,6.4-6.4c0.1-0.1,0.3-0.2,0.3-0.4C18.8,26.3,19.5,25.8,19.9,25.1
					z"/>
			</g>
			<g id="Path_39">
				<path class="st1" d="M10.9,33.8c0.3,0.2,0.6,0.4,1,0.6c0.2,0.1,0.2,0.2,0.1,0.4c-0.2,0.4-0.5,0.8-0.7,1.2
					c-0.1,0.3-0.3,0.2-0.5,0.1c-0.1-0.1-0.3-0.2-0.4-0.2c-0.6-0.4-0.5-0.4-0.2-1c0.1-0.2,0.2-0.3,0.3-0.5
					C10.7,34.1,10.6,33.8,10.9,33.8z"/>
			</g>
			<g id="Path_40">
				<path class="st3" d="M29.2,31.3c0,0.2-0.1,0.2-0.2,0.3c-1.2,1.2-2.4,2.4-3.7,3.7c-0.1,0.1-0.2,0.2-0.3,0.2
					c0-0.4-0.3-0.6-0.4-0.9c0-0.1,0.1-0.1,0.1-0.2c1.1-1.1,2.3-2.3,3.4-3.4c0.1,0,0.1-0.1,0.2-0.1C28.6,30.9,28.8,31.2,29.2,31.3z"
					/>
			</g>
			<g id="Path_41">
				<path class="st1" d="M24.6,34.5c0.1,0.3,0.4,0.6,0.4,0.9c0,0-0.1,0-0.1,0.1c-0.2,0.1-0.4,0.2-0.6,0.3c-0.5,0.3-0.5,0.3-0.8-0.2
					c-0.2-0.3-0.4-0.7-0.6-1c-0.1-0.2-0.1-0.3,0.1-0.4c0.1,0,0.1-0.1,0.1-0.1c0.3-0.2,0.6-0.5,0.9-0.4S24.4,34.3,24.6,34.5z"/>
			</g>
			<g id="Path_42">
				<path class="st1" d="M29.2,31.3c-0.4,0-0.6-0.3-0.9-0.4c0,0-0.1-0.1-0.1-0.1c-0.7-0.4-0.7-0.4-0.4-1.1c0.4-0.6,0.4-0.6,1.1-0.2
					c0.3,0.2,0.6,0.4,1,0.5C29.7,30.4,29.4,30.8,29.2,31.3C29.2,31.2,29.2,31.2,29.2,31.3z"/>
			</g>
			<g id="Path_43">
				<path class="st1" d="M16.7,36.7c0-0.3,0-0.6,0-0.8c0-0.2,0.1-0.2,0.2-0.2c0.3,0,0.6,0,0.9,0c0.2,0,0.4,0,0.3,0.3
					c0,0.5,0,0.9,0,1.4c0,0.2-0.1,0.2-0.2,0.2c-0.1,0-0.2,0-0.3,0c-0.3,0-0.7,0.1-0.9-0.1C16.6,37.4,16.8,37,16.7,36.7z"/>
			</g>
			<g id="Path_44">
				<path class="st1" d="M31.4,24.4c-0.5,0-1,0-1.5,0c-0.3,0-0.5-0.1-0.4-0.4c0-0.1,0-0.2,0-0.3c0-0.7,0-0.7,0.8-0.7h1.2
					C31.4,23.5,31.4,24,31.4,24.4z"/>
			</g>
			<g id="Path_45">
				<path class="st1" d="M29.9,17.4c-0.5,0.3-0.9,0.5-1.4,0.8c-0.2,0.1-0.3,0.1-0.4-0.1c-0.7-1-0.7-1,0.4-1.6
					c0.2-0.1,0.5-0.3,0.7-0.4c0.1,0.2,0.3,0.4,0.4,0.5C29.6,16.9,29.8,17.1,29.9,17.4z"/>
			</g>
			<g id="Path_46">
				<path class="st1" d="M25,12c-0.3,0.5-0.6,0.9-0.8,1.4c-0.1,0.2-0.2,0.2-0.4,0.1c-0.3-0.2-0.5-0.3-0.8-0.5
					c-0.2-0.1-0.2-0.2-0.1-0.4c0.3-0.5,0.5-0.9,0.8-1.4C24.2,11.5,24.6,11.7,25,12z"/>
			</g>
			<g id="Path_47">
				<path class="st3" d="M17.5,22.4c0.7,0,1.3,0.6,1.3,1.4c0,0.7-0.6,1.3-1.4,1.3c-0.7,0-1.3-0.6-1.3-1.4
					C16.1,23,16.7,22.4,17.5,22.4z"/>
			</g>
		</g>
	</g>
</g>
</svg>
